<svg xmlns="http://www.w3.org/2000/svg" viewBox="0 0 637.31 500"><g id="レイヤー_2" data-name="レイヤー 2"><g id="design"><path d="M636.14,5.72,635,5.55c-54.32-8.29-111.33-7.28-167.88,3C410.29,18.81,354.57,38.17,301.49,66a4.24,4.24,0,0,1-2.76.38L1.66,3.8a1.39,1.39,0,0,0-1.15.28A1.38,1.38,0,0,0,0,5.15V435.08a1.36,1.36,0,0,0,1.09,1.34L302.58,500a1.43,1.43,0,0,0,.29,0,1.26,1.26,0,0,0,.63-.16l.44-.23c53-27.82,108.55-47.07,165.22-57.22,55.57-10,111.59-10.89,165-2.75l1.58.24a1.37,1.37,0,0,0,1.1-.32,1.35,1.35,0,0,0,.48-1V7.08A1.38,1.38,0,0,0,636.14,5.72ZM615.72,29V410.31a4.14,4.14,0,0,1-1.36,3.06,4.25,4.25,0,0,1-3.18,1.05,517.93,517.93,0,0,0-151.39,7.37,577.81,577.81,0,0,0-148.4,51.06,4.22,4.22,0,0,1-4-.17,4.15,4.15,0,0,1-2-3.51V89.45a4.11,4.11,0,0,1,2.24-3.66A574,574,0,0,1,460.84,32.05a523.09,523.09,0,0,1,100-9.81A491.59,491.59,0,0,1,612,24.9,4.11,4.11,0,0,1,615.72,29Zm-58.8,127c14.13.56,26.31-3.07,35.22-10.61,9.06-7.65,13.85-18.64,13.85-31.84,0-9.42-1.78-33.31-18.15-50.78C576.49,50.68,558.45,43,539.56,42.35c-1.15,0-2.32-.05-3.47,0A440.69,440.69,0,0,0,430.15,56.59,494.46,494.46,0,0,0,325.61,97.15c-.81.42-1.62.84-2.42,1.27V212.79l6.41-3.35C402.12,171.64,480.83,153,556.92,156ZM347.34,111.46a2.21,2.21,0,0,1,1.27-2C410.2,80.58,473.78,65.66,537.44,65.4c.53,0,1.07,0,1.6,0a42.27,42.27,0,0,1,28.5,12.35,45.94,45.94,0,0,1,12.64,30.75c0,15.7-10.66,25.32-27.17,24.8-68.59-2.18-136.91,12.18-202.83,42.35a2,2,0,0,1-.78.19,1.89,1.89,0,0,1-1.15-.29,1.94,1.94,0,0,1-.91-1.66Zm-2.55,200.29,2.55-1.22V286.64a2.21,2.21,0,0,1,1.27-2c67.2-31.57,139.66-46.89,209.32-44,6,.24,12.11.63,18.09,1.14l1.37.1h0c7.91.39,15.09-1.75,20.22-6.06,5.4-4.55,8.38-11.38,8.38-19.25,0-11.64-3.5-21.39-10.41-28.91-8-8.68-20-14.51-31.32-15.15-2.33-.13-4.7-.25-7-.34a429.71,429.71,0,0,0-112.87,10.64,493.94,493.94,0,0,0-118.75,44.19l-2.42,1.27v94.37l6.41-3.34C334.59,316.75,339.7,314.19,344.79,311.75Zm2.55-70.38a2.2,2.2,0,0,1,1.27-2c67.63-31.76,137.44-46.58,207.29-43.77,3.24.13,6.55.3,9.8.51a15.77,15.77,0,0,1,10.21,4.78,15.57,15.57,0,0,1,4.59,10.37,7.3,7.3,0,0,1-2.36,5.76,7.74,7.74,0,0,1-5.57,1.68l-.4,0c-5.29-.41-10.65-.73-15.95-.95-69.07-2.79-138.46,11.59-206,42.55a2.18,2.18,0,0,1-.78.19,2,2,0,0,1-1.15-.29,1.94,1.94,0,0,1-.91-1.66Zm259.94,80.75a43.35,43.35,0,0,0-12-30.52c-7.33-8-19.77-13.27-33.26-14-2.26-.12-4.55-.23-6.8-.32-76.3-3.06-153.65,15.54-229.59,55.21l-2.42,1.27V448.12l6.41-3.35c72.78-37.94,151.8-56.59,228.26-53.39,6,.25,12.16.64,18.16,1.15.47,0,1,.08,1.42.1h0c7.87.39,15-1.75,20.16-6.07C603,382,606,375.18,606,367.31s-2.86-16.23-8-23.65a2,2,0,0,1,.3-2.74A24,24,0,0,0,607.28,322.12ZM578.84,368a7.09,7.09,0,0,1-5,1.44l-.33,0c-5.12-.4-10.33-.72-15.49-.93-69.06-2.89-141,11.9-207.81,42.47a1.9,1.9,0,0,1-.77.19,2,2,0,0,1-1.15-.29,1.94,1.94,0,0,1-.91-1.66V392.06a2.21,2.21,0,0,1,1.27-2,475,475,0,0,1,107-35.74,423.91,423.91,0,0,1,101.53-8.28c3.19.13,6.43.3,9.63.51A16.84,16.84,0,0,1,581.15,362,7.63,7.63,0,0,1,578.84,368Zm.59-45.5a7.91,7.91,0,0,1-5.62,1.67l-.34,0c-2.91-.22-5.83-.43-8.72-.59h-.16c-2.3-.13-4.62-.25-6.92-.34A432.5,432.5,0,0,0,452.49,332a479.85,479.85,0,0,0-102.31,33.74,2.41,2.41,0,0,1-.78.19,2,2,0,0,1-1.15-.3,1.93,1.93,0,0,1-.91-1.66V346.79a2.19,2.19,0,0,1,1.27-2c68.08-32,137.85-46.86,207.13-44.08,3.2.13,6.44.3,9.63.5,3.48.22,8.73,2.21,11.51,5.15,3.08,3.25,4.92,7.14,4.92,10.39A7.27,7.27,0,0,1,579.43,322.54ZM59.36,256.4c0,11.15-7.81,20.18-17.44,20.18s-17.43-9-17.43-20.18,7.8-20.17,17.43-20.17S59.36,245.26,59.36,256.4Z"/></g></g></svg>