<svg xmlns="http://www.w3.org/2000/svg" viewBox="0 0 301.84 236.8"><g id="レイヤー_2" data-name="レイヤー 2"><g id="design"><path d="M301.28,2.71l-.55-.08A242.24,242.24,0,0,0,221.22,4a273.93,273.93,0,0,0-78.43,27.25,2,2,0,0,1-1.31.18L.78,1.8a.65.65,0,0,0-.54.13A.67.67,0,0,0,0,2.44V206.06a.65.65,0,0,0,.52.63l142.79,30.1h.13a.63.63,0,0,0,.3-.07l.21-.11a271.26,271.26,0,0,1,78.25-27.1,239.64,239.64,0,0,1,78.14-1.3l.75.11a.61.61,0,0,0,.52-.15.65.65,0,0,0,.23-.49V3.35A.65.65,0,0,0,301.28,2.71Zm-9.67,11v180.6a2,2,0,0,1-.64,1.45,2,2,0,0,1-1.51.49,245.66,245.66,0,0,0-71.7,3.49A273.69,273.69,0,0,0,147.48,224a2,2,0,0,1-1.91-.09,2,2,0,0,1-.92-1.66V42.37a2,2,0,0,1,1-1.74,272,272,0,0,1,72.56-25.45,248,248,0,0,1,47.35-4.65,235.08,235.08,0,0,1,24.25,1.26A2,2,0,0,1,291.61,13.73ZM263.76,73.89c6.69.26,12.46-1.46,16.68-5S287,60,287,53.78c0-4.46-.84-15.77-8.6-24C273,24,264.49,20.35,255.54,20.06c-.54,0-1.1,0-1.64,0a208.7,208.7,0,0,0-50.18,6.76A234.58,234.58,0,0,0,154.21,46l-1.15.6v54.17l3-1.58C190.45,81.29,227.72,72.45,263.76,73.89ZM164.5,52.79a1,1,0,0,1,.6-.93C194.27,38.16,224.39,31.1,254.54,31h.76a20.06,20.06,0,0,1,13.49,5.85,21.78,21.78,0,0,1,6,14.57c0,7.43-5,12-12.87,11.74-32.49-1-64.84,5.77-96.06,20.06a1.25,1.25,0,0,1-.37.09,1,1,0,0,1-.55-.14.92.92,0,0,1-.43-.79Zm-1.2,94.86,1.2-.58V135.76a1.08,1.08,0,0,1,.6-.94c31.83-14.95,66.15-22.21,99.14-20.83,2.85.12,5.74.3,8.57.55l.65,0h0a13.66,13.66,0,0,0,9.57-2.87,11.64,11.64,0,0,0,4-9.12,19.56,19.56,0,0,0-4.93-13.69,22.67,22.67,0,0,0-14.83-7.17c-1.1-.07-2.22-.12-3.33-.17a203.5,203.5,0,0,0-53.46,5,233.92,233.92,0,0,0-56.24,20.92l-1.15.6v44.7l3-1.58C158.46,150,160.89,148.8,163.3,147.65Zm1.2-33.34a1,1,0,0,1,.6-.93c32-15,65.1-22.06,98.18-20.73,1.54.06,3.1.15,4.64.24a7.47,7.47,0,0,1,4.84,2.27,7.37,7.37,0,0,1,2.17,4.91,3.47,3.47,0,0,1-1.12,2.73,3.63,3.63,0,0,1-2.64.79H271c-2.51-.2-5.05-.35-7.56-.45-32.71-1.32-65.58,5.49-97.58,20.15a1.25,1.25,0,0,1-.37.09,1,1,0,0,1-.55-.14.92.92,0,0,1-.43-.78Zm123.12,38.25a20.59,20.59,0,0,0-5.7-14.46c-3.47-3.78-9.36-6.28-15.75-6.63-1.07-.06-2.15-.12-3.22-.16-36.14-1.44-72.77,7.36-108.74,26.15l-1.15.6v54.17l3-1.58c34.47-18,71.9-26.8,108.11-25.29,2.86.12,5.76.3,8.6.55l.67,0h0a13.64,13.64,0,0,0,9.55-2.87,11.64,11.64,0,0,0,4-9.12,20,20,0,0,0-3.81-11.2,1,1,0,0,1,.15-1.3A11.34,11.34,0,0,0,287.62,152.56Zm-13.48,21.75a3.33,3.33,0,0,1-2.38.68h-.16c-2.42-.19-4.89-.34-7.33-.44-32.71-1.37-66.78,5.64-98.42,20.11a.84.84,0,0,1-.37.09,1,1,0,0,1-.55-.13,1,1,0,0,1-.43-.79v-8.14a1.07,1.07,0,0,1,.6-.93,225.06,225.06,0,0,1,50.66-16.93,200.61,200.61,0,0,1,48.08-3.92c1.52.06,3.05.15,4.56.24a8,8,0,0,1,6.84,7.32A3.61,3.61,0,0,1,274.14,174.31Zm.28-21.55a3.72,3.72,0,0,1-2.66.79h-.16c-1.38-.11-2.76-.21-4.13-.29h-.08c-1.08-.06-2.18-.12-3.27-.16a204.68,204.68,0,0,0-49.82,4.14,227.32,227.32,0,0,0-48.45,16,1.25,1.25,0,0,1-.37.09.91.91,0,0,1-.55-.14.92.92,0,0,1-.43-.78v-8.14a1,1,0,0,1,.6-.93c32.25-15.15,65.29-22.2,98.1-20.87,1.52.06,3.05.14,4.57.23a9.32,9.32,0,0,1,5.45,2.44,7.68,7.68,0,0,1,2.33,4.92A3.47,3.47,0,0,1,274.42,152.76ZM35.88,124.81c0,5.77-4,10.45-9,10.45s-9-4.68-9-10.45,4.05-10.46,9-10.46S35.88,119,35.88,124.81Z"/></g></g></svg>