<svg xmlns="http://www.w3.org/2000/svg" viewBox="0 0 1558.97 500"><title>log1</title><g id="レイヤー_1" data-name="レイヤー 1"><text transform="translate(1370.04 328.76)" style="font-size:12px;font-family:KozGoPr6N-Regular-83pv-RKSJ-H, Kozuka Gothic Pr6N"><tspan xml:space="preserve">                                              </tspan></text></g><g id="レイヤー_2" data-name="レイヤー 2"><path d="M282.21,44.16c-.63,2.84-1.89,4.41-3.15,6.31-6.31,40.06-18,73.19-35.33,100,14.51,11.67,31.54,20.51,52,26.18-9.15,8.21-21.45,24.93-27.13,36.28-20.19-7.25-37.54-17-51.74-29.65a183.47,183.47,0,0,1-44.79,31.23l-1-1.89-4.73.94v12h89v37.86h-89v17H287.89v39.44H-.45V280.44H119.12v-17H32.36V225.55h86.76V208.2H49.71v7.57H8.39V35.32h134.7V69.4H104V82h37.86v78.24H104v13.88h39.75v30.92l24,1.58c-6-9.79-14.2-21.14-21.14-27.77a129.21,129.21,0,0,0,41.64-28.07c-12.3-18.93-21.76-40.7-29.33-65.62l31.23-6.63H151V37.22h97.16l7.58-.95ZM64.54,69.4H49.71V82H64.54Zm36.91,44.16H49.71V128.7h51.74ZM49.71,160.25v13.88H64.54V160.25Zm146.7-81.71a186.66,186.66,0,0,0,17,37.86A202.13,202.13,0,0,0,228.9,78.54Z"/><path d="M325.42,46.05H594.83V321.77h-48V301.9H371.16v19.87H325.42ZM433.94,90.53H371.16v59.31h62.78ZM371.16,195.9v59.62h62.78V195.9Zm175.72-46.06V90.53H480.63v59.31ZM480.63,255.52h66.25V195.9H480.63Z"/><path d="M889.47,232.49l24.29,19.25c-1.26,1.57-3.79,2.2-6.31,2.2a13.16,13.16,0,0,1-3.47-.31c-10.09,5.68-25.24,13.57-39.43,20.19,17,7.57,36.91,12.62,60.25,15.77-8.83,8.52-19.56,25.24-24.61,36.28-44.79-8.2-76.66-24-99.68-48.58l.94,29c-42,5.68-85.8,11.05-114.51,14.51a6.35,6.35,0,0,1-5.37,5.05l-16.09-41c9.79-.63,21.46-1.58,33.76-2.84V271a354.89,354.89,0,0,1-49.53,11.36c-5.05-9.47-15.77-24.29-24-32.5,28.71-3.15,57.11-9.14,80.76-17.35H629.84V196.84H751V183.91h-11c-2.21-8.83-7.26-19.56-10.73-26.82,4.41.32,10.41.32,12.62.32,3.15,0,3.15-1.26,3.15-11h-16.4v43.85H689.77V146.37H674.63V183.6H640.56v-64h49.21v-7.89H629.52v-30h19.87c-6.3-3.79-13.24-7.57-18.61-10.1,7.89-11.35,14.51-29.65,18.3-45.74l37.54,11c-1.26,2.53-3.78,3.47-7.25,3.16l-1.58,4.73h12V25.54l47.33,2.53c-.32,3.15-2.53,5-8.52,6.31V44.79h49.84V73.18H728.58V81.7h58.68v30H728.58v7.89h54.57v34.38c0,14.2-2.2,20.82-11,25.24l34.69,1.89c-.31,3.79-3.15,5.68-9.77,6.94v8.83h122.4v35.65Zm-223-159.31c-1.58,2.84-3.15,6-4.73,8.52h28.07V73.18Zm85.81,178.56c-.31,3.47-2.84,6-9.15,6.62v19.56c17.35-1.58,35.33-3.47,53.32-5.36a153.63,153.63,0,0,1-24-37.23,201.84,201.84,0,0,1-25.24,15.78ZM845.93,41.32c-.31,3.15-2.52,5-8.83,6.31v96.22H796.41V38.48ZM813.75,232.49a108.41,108.41,0,0,0,17.67,20.19c11.36-5.67,23.34-13.25,33.76-20.19ZM916,29.65c-.32,3.47-2.52,5.67-8.84,6.62V152.68c0,30.6-10.09,39.75-66.56,39.75-1.89-10.73-7.88-26.18-12.93-36,12.3.63,27.76.63,32.17.63,4.42-.31,6-1.25,6-5.36v-124Z"/><path d="M1242.15,119.87h-84.86v26.19h77V187.7h-77v28.39h81.08v42.59h-81.08v66.56H1110V119.87h-9.78c-12,23.66-25.24,45.74-39.12,62.78a304.74,304.74,0,0,0-32.18-31.23V325.24H983.46V171.92a368.06,368.06,0,0,1-25.24,30.92c-4.41-11.67-15.77-36-22.39-47,27.76-28.4,56.47-80.14,73.5-129.66l51.43,18c-1.27,2.84-4.74,4.41-9.79,4.1-7.88,19.24-17,38.49-26.81,57.42l14.2,3.78c-.95,3.15-3.79,5.68-9.47,6.31v31.55c22.71-28.08,44.17-75.09,56.16-119.25L1139,44.16c-1.26,2.84-4.73,4.73-9.46,4.1-3.16,9.15-6.63,18.61-10.1,28.07h122.72Z"/><path d="M1398,213.88h-83c-2.53,38.49-9.78,82.34-28.39,112-7.26-7.89-26.5-22.4-36-27.44,20.19-34.07,21.77-83.92,21.77-120.51V100H1398Zm7.25-174.77V80.44H1258.85V39.11Zm-51.42,101.58H1316V173.5h37.86Zm204.74-76c-2.21,2.21-6,2.21-9.78,2.21-23.66,11.36-56.78,22.08-89,30.6V132.8h98.42V177h-27.12V325.56h-45.43V177h-27.13c-3.16,47.95-16.09,107.89-58,147.64-6-9.78-23-25.55-33.75-31.23,44.16-42.9,48.26-103.79,48.26-149.85v-88l24.92,5.68c29-8.83,57.73-20.5,76.66-32.17Z"/><path d="M159.06,464.58v-97.1h30.45V407.1l49.24-39.62h26.8L204.65,416l60.9,48.55H235.1l-45.59-37.8v37.8Z"/><path d="M387,464.58V389.1q0-8.93,9-15.27t21.43-6.35h30.45q12.39,0,21.33,6.41t8.94,15.21v75.48H447.89V421.47H417.44v43.11Zm30.45-54h30.45V389.1q0-4.52-4.47-7.7a18.28,18.28,0,0,0-10.85-3.17,18,18,0,0,0-10.67,3.17q-4.45,3.18-4.46,7.7Z"/><path d="M615.09,464.58V378.23H584.64V367.48h91.17v10.75H645.36v86.35Z"/><path d="M782.11,464.58V389.1q0-8.93,9-15.27t21.42-6.35H843q12.4,0,21.34,6.41t8.93,15.21v75.48H843V421.47H812.56v43.11Zm30.45-54H843V389.1q0-4.52-4.46-7.7a18.32,18.32,0,0,0-10.85-3.17A18,18,0,0,0,817,381.4q-4.47,3.18-4.47,7.7Z"/><path d="M994.9,464.58v-97.1h60.9q12.4,0,21.34,6.41t8.93,15.21V443q0,8.81-8.93,15.21t-21.34,6.41Zm30.45-10.75h15.14a18,18,0,0,0,10.85-3.23q4.46-3.24,4.46-7.64V389.1q0-4.52-4.46-7.7a18.3,18.3,0,0,0-10.85-3.17h-15.14Z"/><path d="M1207.69,464.58V389.1q0-8.93,9-15.27t21.42-6.35h30.45q12.4,0,21.33,6.41t8.94,15.21v75.48h-30.27V421.47h-30.45v43.11Zm30.45-54h30.45V389.1q0-4.52-4.47-7.7a18.28,18.28,0,0,0-10.85-3.17,18,18,0,0,0-10.66,3.17q-4.47,3.18-4.47,7.7Z"/></g></svg>